Coordinates
version=1
nRows=21
nColumns=12
inDegrees=yes

Units are S.I. units (second, meters, Newtons, ...)
Angles are in degrees

endheader
time	SC_y	SC_z	SC_x	AC_y	AC_z	AC_x	GH_y	GH_z	GH_yy	EL_x	PS_y
       0.0              -48.31          30.92          61.38           60.7         -16.81         -17.74           79.3          85.37          29.68          72.91          146.3
   0.02861              -48.31          30.92          61.37           60.7         -16.81         -17.73          79.27          85.37          29.67          72.92          146.3
   0.05723               -48.3          30.91          61.36           60.7          -16.8         -17.73          79.23          85.36          29.65          72.92          146.3
   0.08584               -48.3           30.9          61.35           60.7          -16.8         -17.72          79.19          85.36          29.63          72.93          146.3
    0.1145              -48.29           30.9          61.34          60.69         -16.79         -17.71          79.15          85.35          29.61          72.93          146.3
    0.1431              -48.29          30.89          61.33          60.69         -16.79         -17.71          79.11          85.35          29.58          72.94          146.3
    0.1717              -48.28          30.89          61.32          60.69         -16.78          -17.7          79.06          85.34          29.56          72.95          146.3
    0.2003              -48.28          30.88          61.31          60.69         -16.78         -17.69          79.01          85.33          29.53          72.95          146.3
    0.2289              -48.27          30.87          61.29          60.69         -16.77         -17.69          78.95          85.33          29.51          72.96          146.3
    0.2575              -48.26          30.86          61.28          60.68         -16.77         -17.68           78.9          85.32          29.48          72.97          146.3
    0.2861              -48.25          30.85          61.26          60.68         -16.76         -17.67          78.83          85.31          29.44          72.98          146.3
    0.3147              -48.25          30.84          61.24          60.68         -16.75         -17.66          78.77           85.3          29.41          72.99          146.3
    0.3434              -48.24          30.83          61.23          60.68         -16.74         -17.65           78.7          85.29          29.37           73.0          146.3
     0.372              -48.23          30.82          61.21          60.67         -16.73         -17.64          78.62          85.28          29.33          73.01          146.3
    0.4006              -48.22          30.81          61.18          60.67         -16.73         -17.63          78.53          85.27          29.29          73.03          146.3
    0.4292               -48.2          30.79          61.16          60.66         -16.72         -17.61          78.44          85.26          29.24          73.04          146.3
    0.4578              -48.19          30.78          61.13          60.66          -16.7          -17.6          78.34          85.24          29.19          73.06          146.3
    0.4864              -48.18          30.76          61.11          60.66         -16.69         -17.58          78.24          85.23          29.14          73.07          146.2
     0.515              -48.16          30.75          61.07          60.65         -16.68         -17.57          78.12          85.21          29.08          73.09          146.2
    0.5436              -48.15          30.73          61.04          60.65         -16.67         -17.55          77.99          85.19          29.01          73.11          146.2
    0.5723              -48.13           30.7           61.0          60.64         -16.65         -17.53          77.85          85.17          28.94          73.13          146.2
